<svg data-v-0dd9719b="" version="1.0" xmlns="http://www.w3.org/2000/svg" xmlns:xlink="http://www.w3.org/1999/xlink" width="100%" height="100%" viewBox="0 0 340.000000 250.000000" preserveAspectRatio="xMidYMid meet" color-interpolation-filters="sRGB" style="margin: auto;"> <rect data-v-0dd9719b="" x="0" y="0" width="100%" height="100%" fill="#fff" fill-opacity="1" class="background"></rect> <rect data-v-0dd9719b="" x="0" y="0" width="100%" height="100%" fill="url(#watermark)" fill-opacity="1" class="watermarklayer"></rect> <g data-v-0dd9719b="" fill="#0a0a0a" class="icon-text-wrapper icon-svg-group iconsvg" transform="translate(99.64000678062439,67.19901657104492)"><g class="iconsvg-imagesvg" transform="translate(40.35999298095703,0)"><g><rect fill="#0a0a0a" fill-opacity="0" stroke-width="2" x="0" y="0" width="60" height="58.493214787084696" class="image-rect"></rect> <svg x="0" y="0" width="60" height="58.493214787084696" filtersec="colorsb6901565218" class="image-svg-svg primary" style="overflow: visible;"><svg xmlns="http://www.w3.org/2000/svg" viewBox="0.5476989150047302 0.720198929309845 98.89771270751953 96.41370391845703"><g transform="matrix(.69 0 0 .69 15.5 15.5)"><path fill="#0A0A0A" d="M107.48 6.27L50.01-21.42-7.47 6.24l-14.2 62.25 39.79 49.82h63.77l39.77-49.87-14.18-62.17zM20.33 113.7L50 48.57-3.34 9.38 50.01-16.3l53.35 25.68-53.35 39.19 29.72 65.08-59.4.05z"></path></g></svg></svg> <!----></g></g> <g transform="translate(0,65.49321365356445)"><g data-gra="path-name" fill-rule="" class="tp-name iconsvg-namesvg" transform="translate(0,0)"><g transform="scale(1)"><g><path d="M22.54-25.29L10.3-25.29 10.3-18.04 21.64-18.04 21.64-12.15 10.3-12.15 10.3 0 3.46 0 3.46-31.23 22.54-31.23 22.54-25.29ZM40.63 0.45L40.63 0.45Q37.48 0.45 35.05-0.09 32.63-0.63 30.96-1.87 29.29-3.1 28.44-5.17 27.59-7.25 27.59-10.35L27.59-10.35 27.59-31.23 34.42-31.23 34.42-11.12Q34.42-9.72 34.7-8.64 34.96-7.56 35.69-6.84 36.41-6.12 37.62-5.76 38.84-5.4 40.68-5.4L40.68-5.4Q42.61-5.4 43.83-5.8 45.05-6.21 45.74-6.95 46.44-7.69 46.71-8.75 46.98-9.81 46.98-11.12L46.98-11.12 46.98-31.23 53.77-31.23 53.77-10.35Q53.77-7.47 52.9-5.42 52.02-3.38 50.33-2.07 48.64-0.77 46.22-0.16 43.78 0.45 40.63 0.45ZM67.41-5.94L79.83-5.94 79.83 0 60.57 0 60.57-31.23 67.41-31.23 67.41-5.94ZM106.16 0L103.5-7.74 90.81-7.74 88.11 0 81 0 92.66-31.23 101.84-31.23 113.4 0 106.16 0ZM92.79-13.41L101.52-13.41 97.47-25.24 96.93-25.24 92.79-13.41ZM116.96 0L116.96-31.23 127.4-31.23 137.21-8.91 137.48-8.91 137.48-31.23 144.18-31.23 144.18 0 134.78 0 123.98-23.76 123.71-23.76 123.71 0 116.96 0Z" transform="translate(-3.4600000381469727, 31.229999542236328)"></path></g> <!----> <!----> <!----> <!----> <!----> <!----> <!----></g></g> <g data-gra="path-slogan" fill-rule="" class="tp-slogan iconsvg-slogansvg" fill="#0a0a0a" transform="translate(4.999992370605469,36.680002212524414)"><rect x="0" height="1" y="6.215000629425049" width="3.5383377075195312"></rect> <rect height="1" y="6.215000629425049" width="3.5383377075195312" x="127.18164825439453"></rect> <g transform="translate(6.538337707519531,0)"><g transform="scale(1)"><path d="M10.76-9.14L10.76-9.14L9.14-9.14Q9-11.60 5.91-11.74L5.91-11.74Q3.02-11.67 3.02-9.49L3.02-9.49Q3.02-8.09 4.57-7.88L4.57-7.88L8.23-7.03Q11.11-6.33 11.11-3.52L11.11-3.52Q11.04 0.07 6.05 0.21L6.05 0.21Q3.30 0.21 2.18-0.91L2.18-0.91Q0.77-1.97 0.84-4.15L0.84-4.15L2.53-4.15Q2.60-1.20 6.05-1.13L6.05-1.13Q9.42-1.20 9.49-3.30L9.49-3.30Q9.77-5.06 6.68-5.63L6.68-5.63L4.01-6.19Q1.27-6.96 1.27-9.28L1.27-9.28Q1.48-13.08 5.77-13.22L5.77-13.22Q10.62-13.22 10.76-9.14ZM22.29-12.87L24.05-12.87L24.05-1.55L30.59-1.55L30.59 0L22.29 0L22.29-12.87ZM51.47-6.40L51.47-6.40Q51.19-11.46 46.97-11.74L46.97-11.74Q42.68-11.53 42.47-6.40L42.47-6.40Q42.68-1.41 46.97-1.20L46.97-1.20Q51.19-1.48 51.47-6.40ZM53.23-6.40L53.23-6.40Q52.80 0 46.97 0.21L46.97 0.21Q41.06 0 40.64-6.40L40.64-6.40Q40.99-13.08 46.97-13.22L46.97-13.22Q52.80-13.01 53.23-6.40ZM73.90-5.41L69.96-5.41L69.96-6.89L75.59-6.89L75.59 0L74.46 0L74.04-1.62Q72.56 0.14 69.82 0.21L69.82 0.21Q67.22 0.21 65.81-1.13L65.81-1.13Q63.70-3.09 63.77-6.54L63.77-6.54Q64.27-12.94 69.89-13.22L69.89-13.22Q74.67-12.94 75.38-9L75.38-9L73.69-9Q72.98-11.67 69.82-11.74L69.82-11.74Q65.81-11.46 65.60-6.47L65.60-6.47Q65.60-1.13 69.89-1.13L69.89-1.13Q71.44-1.13 72.56-1.97L72.56-1.97Q73.97-3.09 73.90-5.41L73.90-5.41ZM95.77 0L94.50-3.73L89.30-3.73L87.96 0L86.20 0L91.05-12.87L93.02-12.87L97.66 0L95.77 0ZM91.90-10.97L89.86-5.27L93.87-5.27L91.97-10.97L91.90-10.97ZM110.32-12.87L116.79-2.46L116.79-12.87L118.48-12.87L118.48 0L116.51 0L109.97-10.41L109.90-10.41L109.90 0L108.21 0L108.21-12.87L110.32-12.87Z" transform="translate(-0.8404017857142857, 13.21875)"></path></g></g></g></g></g><defs v-gra="od"></defs></svg>